<svg xmlns="http://www.w3.org/2000/svg" viewBox="0 0 612 330"><defs><style>.cls-1{fill:#ff6e40;}.cls-2{fill:#150035;}.cls-3{fill:#fff;}</style></defs><title>Background_1</title><g id="Layer_2" data-name="Layer 2"><g id="content"><rect id="background" class="cls-1" width="612" height="330"/><g id="pattern"><path class="cls-2" d="M45.91,18a2.65,2.65,0,1,1,2.65-2.65A2.66,2.66,0,0,1,45.91,18Zm0-4.3a1.65,1.65,0,1,0,1.65,1.65A1.66,1.66,0,0,0,45.91,13.74Z"/><path class="cls-2" d="M54.11,9.81a2.66,2.66,0,1,1,2.65-2.66A2.66,2.66,0,0,1,54.11,9.81Zm0-4.31a1.66,1.66,0,1,0,1.65,1.65A1.65,1.65,0,0,0,54.11,5.5Z"/><path class="cls-2" d="M70.64,18a2.65,2.65,0,1,1,2.65-2.65A2.66,2.66,0,0,1,70.64,18Zm0-4.3a1.65,1.65,0,1,0,1.65,1.65A1.66,1.66,0,0,0,70.64,13.74Z"/><path class="cls-2" d="M72.27,18H69a1,1,0,0,1-1-1V13.76a1,1,0,0,1,1-1h3.26a1,1,0,0,1,1,1V17A1,1,0,0,1,72.27,18ZM69,13.74,69,17l3.29,0a0,0,0,0,0,0,0V13.76Z"/><path class="cls-3" d="M95.67,9.81a2.66,2.66,0,1,1,2.65-2.66A2.66,2.66,0,0,1,95.67,9.81Zm0-4.31a1.66,1.66,0,1,0,1.65,1.65A1.66,1.66,0,0,0,95.67,5.5Z"/><path class="cls-3" d="M97.3,9.81H94a1,1,0,0,1-1-1V5.53a1,1,0,0,1,1-1H97.3a1,1,0,0,1,1,1V8.78A1,1,0,0,1,97.3,9.81ZM94,5.5l0,3.28,3.29,0s0,0,0,0V5.53Z"/><path class="cls-2" d="M70.64,9.81a2.66,2.66,0,1,1,2.65-2.66A2.66,2.66,0,0,1,70.64,9.81Zm0-4.31a1.66,1.66,0,1,0,1.65,1.65A1.66,1.66,0,0,0,70.64,5.5Z"/><rect class="cls-2" x="61.94" y="5" width="1" height="4.31"/><rect class="cls-2" x="60.28" y="6.65" width="4.31" height="1"/><rect class="cls-2" x="53.61" y="13.24" width="1" height="4.31"/><rect class="cls-2" x="51.96" y="14.89" width="4.31" height="1"/><path class="cls-2" d="M80.75,18H77.53a1,1,0,0,1-1-1V13.78a1,1,0,0,1,1-1h3.22a1,1,0,0,1,1,1V17A1,1,0,0,1,80.75,18Zm-3.22-4.3,0,3.26,3.27,0s0,0,0,0V13.78Z"/><path class="cls-2" d="M47.52,9.81H44.29a1,1,0,0,1-1-1V5.54a1,1,0,0,1,1-1h3.23a1,1,0,0,1,1,1V8.77A1,1,0,0,1,47.52,9.81ZM44.29,5.5l0,3.27,3.27,0a0,0,0,0,0,0,0V5.54Z"/><path class="cls-3" d="M97.3,18H94a1,1,0,0,1-1-1V13.76a1,1,0,0,1,1-1H97.3a1,1,0,0,1,1,1V17A1,1,0,0,1,97.3,18ZM94,13.74,94,17l3.29,0a0,0,0,0,0,0,0V13.76Z"/><path class="cls-3" d="M103.87,9.81a2.66,2.66,0,1,1,2.65-2.66A2.67,2.67,0,0,1,103.87,9.81Zm0-4.31a1.66,1.66,0,1,0,1.65,1.65A1.66,1.66,0,0,0,103.87,5.5Z"/><rect class="cls-2" x="78.64" y="5" width="1" height="4.31"/><rect class="cls-2" x="76.98" y="6.65" width="4.31" height="1"/><rect class="cls-3" x="86.84" y="13.24" width="1" height="4.31"/><rect class="cls-3" x="85.19" y="14.89" width="4.31" height="1"/><rect class="cls-3" x="103.37" y="13.24" width="1" height="4.31"/><rect class="cls-3" x="101.71" y="14.89" width="4.31" height="1"/><path class="cls-3" d="M111.86,18a2.65,2.65,0,1,1,2.66-2.65A2.65,2.65,0,0,1,111.86,18Zm0-4.3a1.65,1.65,0,1,0,1.66,1.65A1.65,1.65,0,0,0,111.86,13.74Z"/><path class="cls-3" d="M120.07,9.81a2.66,2.66,0,1,1,2.65-2.66A2.66,2.66,0,0,1,120.07,9.81Zm0-4.31a1.66,1.66,0,1,0,1.65,1.65A1.65,1.65,0,0,0,120.07,5.5Z"/><path class="cls-3" d="M136.6,18a2.65,2.65,0,1,1,2.65-2.65A2.66,2.66,0,0,1,136.6,18Zm0-4.3a1.65,1.65,0,1,0,1.65,1.65A1.65,1.65,0,0,0,136.6,13.74Z"/><path class="cls-3" d="M138.22,18H135a1,1,0,0,1-1-1V13.76a1,1,0,0,1,1-1h3.25a1,1,0,0,1,1,1V17A1,1,0,0,1,138.22,18ZM135,13.74l0,3.28,3.28,0s0,0,0,0V13.76Z"/><path class="cls-3" d="M161.62,9.81a2.66,2.66,0,1,1,2.66-2.66A2.66,2.66,0,0,1,161.62,9.81Zm0-4.31a1.66,1.66,0,1,0,1.66,1.65A1.65,1.65,0,0,0,161.62,5.5Z"/><path class="cls-3" d="M163.25,9.81H160a1,1,0,0,1-1-1V5.53a1,1,0,0,1,1-1h3.25a1,1,0,0,1,1,1V8.78A1,1,0,0,1,163.25,9.81ZM160,5.5l0,3.28,3.28,0a0,0,0,0,0,0,0V5.53Z"/><path class="cls-3" d="M113.49,9.81h-3.25a1,1,0,0,1-1-1V5.53a1,1,0,0,1,1-1h3.25a1,1,0,0,1,1,1V8.78A1,1,0,0,1,113.49,9.81ZM110.24,5.5l0,3.28,3.28,0a0,0,0,0,0,0,0V5.53Z"/><path class="cls-3" d="M136.6,9.81a2.66,2.66,0,1,1,2.65-2.66A2.66,2.66,0,0,1,136.6,9.81Zm0-4.31a1.66,1.66,0,1,0,1.65,1.65A1.65,1.65,0,0,0,136.6,5.5Z"/><rect class="cls-3" x="127.89" y="5" width="1" height="4.31"/><rect class="cls-3" x="126.24" y="6.65" width="4.31" height="1"/><rect class="cls-3" x="119.57" y="13.24" width="1" height="4.31"/><rect class="cls-3" x="117.91" y="14.89" width="4.31" height="1"/><path class="cls-3" d="M146.71,18h-3.23a1,1,0,0,1-1-1V13.78a1,1,0,0,1,1-1h3.23a1,1,0,0,1,1,1V17A1,1,0,0,1,146.71,18Zm-3.23-4.3,0,3.26,3.27,0a0,0,0,0,0,0,0V13.78Z"/><path class="cls-3" d="M153.3,9.81A2.66,2.66,0,1,1,156,7.15,2.66,2.66,0,0,1,153.3,9.81Zm0-4.31A1.66,1.66,0,1,0,155,7.15,1.66,1.66,0,0,0,153.3,5.5Z"/><path class="cls-3" d="M163.25,18H160a1,1,0,0,1-1-1V13.76a1,1,0,0,1,1-1h3.25a1,1,0,0,1,1,1V17A1,1,0,0,1,163.25,18ZM160,13.74,160,17l3.28,0s0,0,0,0V13.76Z"/><path class="cls-3" d="M169.83,9.81a2.66,2.66,0,1,1,2.65-2.66A2.66,2.66,0,0,1,169.83,9.81Zm0-4.31a1.66,1.66,0,1,0,1.65,1.65A1.65,1.65,0,0,0,169.83,5.5Z"/><rect class="cls-3" x="144.6" y="5" width="1" height="4.31"/><rect class="cls-3" x="142.94" y="6.65" width="4.31" height="1"/><rect class="cls-3" x="152.8" y="13.24" width="1" height="4.31"/><rect class="cls-3" x="151.14" y="14.89" width="4.31" height="1"/><rect class="cls-3" x="169.33" y="13.24" width="1" height="4.31"/><rect class="cls-3" x="167.67" y="14.89" width="4.31" height="1"/><path class="cls-3" d="M177.82,18a2.65,2.65,0,1,1,2.66-2.65A2.65,2.65,0,0,1,177.82,18Zm0-4.3a1.65,1.65,0,1,0,1.66,1.65A1.65,1.65,0,0,0,177.82,13.74Z"/><path class="cls-3" d="M202.55,18a2.65,2.65,0,1,1,2.66-2.65A2.65,2.65,0,0,1,202.55,18Zm0-4.3a1.65,1.65,0,1,0,1.66,1.65A1.65,1.65,0,0,0,202.55,13.74Z"/><path class="cls-3" d="M204.18,18h-3.26a1,1,0,0,1-1-1V13.76a1,1,0,0,1,1-1h3.26a1,1,0,0,1,1,1V17A1,1,0,0,1,204.18,18Zm-3.26-4.3,0,3.28,3.28,0s0,0,0,0V13.76Z"/><path class="cls-3" d="M227.58,9.81a2.66,2.66,0,1,1,2.66-2.66A2.66,2.66,0,0,1,227.58,9.81Zm0-4.31a1.66,1.66,0,1,0,1.66,1.65A1.65,1.65,0,0,0,227.58,5.5Z"/><path class="cls-3" d="M229.21,9.81H226a1,1,0,0,1-1-1V5.53a1,1,0,0,1,1-1h3.26a1,1,0,0,1,1,1V8.78A1,1,0,0,1,229.21,9.81ZM226,5.5l0,3.28,3.28,0a0,0,0,0,0,0,0V5.53Z"/><path class="cls-3" d="M202.55,9.81a2.66,2.66,0,1,1,2.66-2.66A2.66,2.66,0,0,1,202.55,9.81Zm0-4.31a1.66,1.66,0,1,0,1.66,1.65A1.65,1.65,0,0,0,202.55,5.5Z"/><rect class="cls-3" x="193.85" y="5" width="1" height="4.31"/><rect class="cls-3" x="192.2" y="6.65" width="4.31" height="1"/><rect class="cls-3" x="185.52" y="13.24" width="1" height="4.31"/><rect class="cls-3" x="183.87" y="14.89" width="4.31" height="1"/><path class="cls-3" d="M212.67,18h-3.23a1,1,0,0,1-1-1V13.78a1,1,0,0,1,1-1h3.23a1,1,0,0,1,1,1V17A1,1,0,0,1,212.67,18Zm-3.23-4.3,0,3.26,3.27,0a0,0,0,0,0,0,0V13.78Z"/><path class="cls-3" d="M219.25,9.81a2.66,2.66,0,1,1,2.66-2.66A2.66,2.66,0,0,1,219.25,9.81Zm0-4.31a1.66,1.66,0,1,0,1.66,1.65A1.65,1.65,0,0,0,219.25,5.5Z"/><path class="cls-3" d="M235.78,9.81a2.66,2.66,0,1,1,2.66-2.66A2.66,2.66,0,0,1,235.78,9.81Zm0-4.31a1.66,1.66,0,1,0,1.66,1.65A1.65,1.65,0,0,0,235.78,5.5Z"/><rect class="cls-3" x="210.55" y="5" width="1" height="4.31"/><rect class="cls-3" x="208.9" y="6.65" width="4.31" height="1"/><rect class="cls-3" x="218.75" y="13.24" width="1" height="4.31"/><rect class="cls-3" x="217.1" y="14.89" width="4.31" height="1"/><path class="cls-2" d="M587.8,9.86a2.66,2.66,0,1,1,2.65-2.66A2.66,2.66,0,0,1,587.8,9.86Zm0-4.31a1.66,1.66,0,1,0,1.65,1.65A1.66,1.66,0,0,0,587.8,5.55Z"/><path class="cls-2" d="M589.43,9.86h-3.26a1,1,0,0,1-1-1V5.58a1,1,0,0,1,1-1h3.26a1,1,0,0,1,1,1V8.83A1,1,0,0,1,589.43,9.86Zm-3.26-4.31,0,3.28,3.29,0s0,0,0,0V5.58Z"/><path class="cls-3" d="M562.77,9.86a2.66,2.66,0,1,1,2.65-2.66A2.66,2.66,0,0,1,562.77,9.86Zm0-4.31a1.66,1.66,0,1,0,1.65,1.65A1.66,1.66,0,0,0,562.77,5.55Z"/><path class="cls-2" d="M589.43,18.1h-3.26a1,1,0,0,1-1-1V13.81a1,1,0,0,1,1-1h3.26a1,1,0,0,1,1,1v3.26A1,1,0,0,1,589.43,18.1Zm-3.26-4.31,0,3.28,3.29,0s0,0,0,0V13.81Z"/><path class="cls-2" d="M597.63,9.86h-3.26a1,1,0,0,1-1-1V5.58a1,1,0,0,1,1-1h3.26a1,1,0,0,1,1,1V8.83A1,1,0,0,1,597.63,9.86Zm-3.26-4.31,0,3.28,3.28,0s0,0,0,0V5.58Z"/><rect class="cls-3" x="570.77" y="5.05" width="1" height="4.31"/><rect class="cls-3" x="569.12" y="6.7" width="4.31" height="1"/><rect class="cls-3" x="578.97" y="13.29" width="1" height="4.31"/><rect class="cls-3" x="577.32" y="14.94" width="4.31" height="1"/><rect class="cls-2" x="595.5" y="13.29" width="1" height="4.31"/><rect class="cls-2" x="593.85" y="14.94" width="4.31" height="1"/><path class="cls-2" d="M45.8,326.72a2.66,2.66,0,1,1,2.66-2.65A2.65,2.65,0,0,1,45.8,326.72Zm0-4.31a1.66,1.66,0,1,0,1.66,1.66A1.65,1.65,0,0,0,45.8,322.41Z"/><path class="cls-2" d="M70.53,326.72a2.66,2.66,0,1,1,2.66-2.65A2.65,2.65,0,0,1,70.53,326.72Zm0-4.31a1.66,1.66,0,1,0,1.66,1.66A1.65,1.65,0,0,0,70.53,322.41Z"/><path class="cls-2" d="M64,326.72H60.7a1,1,0,0,1-1-1v-3.25a1,1,0,0,1,1-1H64a1,1,0,0,1,1,1v3.25A1,1,0,0,1,64,326.72Zm-3.26-4.31,0,3.28,3.28,0a0,0,0,0,0,0,0v-3.25Z"/><path class="cls-2" d="M72.16,326.72H68.91a1,1,0,0,1-1-1v-3.25a1,1,0,0,1,1-1h3.25a1,1,0,0,1,1,1v3.25A1,1,0,0,1,72.16,326.72Zm-3.25-4.31,0,3.28,3.28,0a0,0,0,0,0,0,0v-3.25Z"/><path class="cls-3" d="M95.56,318.49a2.66,2.66,0,1,1,2.66-2.66A2.66,2.66,0,0,1,95.56,318.49Zm0-4.31a1.66,1.66,0,1,0,1.66,1.65A1.65,1.65,0,0,0,95.56,314.18Z"/><path class="cls-3" d="M97.19,318.49H93.94a1,1,0,0,1-1-1V314.2a1,1,0,0,1,1-1h3.25a1,1,0,0,1,1,1v3.26A1,1,0,0,1,97.19,318.49Zm-3.25-4.31,0,3.28,3.28,0a0,0,0,0,0,0,0V314.2Z"/><path class="cls-2" d="M47.43,318.49H44.18a1,1,0,0,1-1-1V314.2a1,1,0,0,1,1-1h3.25a1,1,0,0,1,1,1v3.26A1,1,0,0,1,47.43,318.49Zm-3.25-4.31,0,3.28,3.28,0a0,0,0,0,0,0,0V314.2Z"/><path class="cls-2" d="M70.53,318.49a2.66,2.66,0,1,1,2.66-2.66A2.66,2.66,0,0,1,70.53,318.49Zm0-4.31a1.66,1.66,0,1,0,1.66,1.65A1.65,1.65,0,0,0,70.53,314.18Z"/><rect class="cls-2" x="61.83" y="313.68" width="1" height="4.31"/><rect class="cls-2" x="60.18" y="315.33" width="4.31" height="1"/><rect class="cls-2" x="53.51" y="321.91" width="1" height="4.31"/><rect class="cls-2" x="51.85" y="323.57" width="4.31" height="1"/><path class="cls-2" d="M80.65,326.72H77.42a1,1,0,0,1-1-1v-3.23a1,1,0,0,1,1-1h3.23a1,1,0,0,1,1,1v3.23A1,1,0,0,1,80.65,326.72Zm-3.23-4.31,0,3.27,3.27,0a0,0,0,0,0,0,0v-3.23Z"/><path class="cls-3" d="M97.19,326.72H93.94a1,1,0,0,1-1-1v-3.25a1,1,0,0,1,1-1h3.25a1,1,0,0,1,1,1v3.25A1,1,0,0,1,97.19,326.72Zm-3.25-4.31,0,3.28,3.28,0a0,0,0,0,0,0,0v-3.25Z"/><path class="cls-3" d="M103.77,318.49a2.66,2.66,0,1,1,2.65-2.66A2.67,2.67,0,0,1,103.77,318.49Zm0-4.31a1.66,1.66,0,1,0,1.65,1.65A1.65,1.65,0,0,0,103.77,314.18Z"/><rect class="cls-2" x="78.54" y="313.68" width="1" height="4.31"/><rect class="cls-2" x="76.88" y="315.33" width="4.31" height="1"/><rect class="cls-3" x="86.74" y="321.91" width="1" height="4.31"/><rect class="cls-3" x="85.08" y="323.57" width="4.31" height="1"/><rect class="cls-3" x="103.27" y="321.91" width="1" height="4.31"/><rect class="cls-3" x="101.61" y="323.57" width="4.31" height="1"/><path class="cls-3" d="M111.76,326.72a2.66,2.66,0,1,1,2.65-2.65A2.65,2.65,0,0,1,111.76,326.72Zm0-4.31a1.66,1.66,0,1,0,1.65,1.66A1.65,1.65,0,0,0,111.76,322.41Z"/><path class="cls-3" d="M120,318.49a2.66,2.66,0,1,1,2.66-2.66A2.66,2.66,0,0,1,120,318.49Zm0-4.31a1.66,1.66,0,0,0,0,3.31,1.66,1.66,0,1,0,0-3.31Z"/><path class="cls-3" d="M136.49,326.72a2.66,2.66,0,1,1,2.66-2.65A2.65,2.65,0,0,1,136.49,326.72Zm0-4.31a1.66,1.66,0,1,0,1.66,1.66A1.65,1.65,0,0,0,136.49,322.41Z"/><path class="cls-3" d="M129.92,326.72h-3.26a1,1,0,0,1-1-1v-3.25a1,1,0,0,1,1-1h3.26a1,1,0,0,1,1,1v3.25A1,1,0,0,1,129.92,326.72Zm-3.26-4.31,0,3.28,3.29,0s0,0,0,0v-3.25Z"/><path class="cls-3" d="M138.12,326.72h-3.26a1,1,0,0,1-1-1v-3.25a1,1,0,0,1,1-1h3.26a1,1,0,0,1,1,1v3.25A1,1,0,0,1,138.12,326.72Zm-3.26-4.31,0,3.28,3.28,0a0,0,0,0,0,0,0v-3.25Z"/><path class="cls-3" d="M161.52,318.49a2.66,2.66,0,1,1,2.65-2.66A2.66,2.66,0,0,1,161.52,318.49Zm0-4.31a1.66,1.66,0,1,0,1.65,1.65A1.65,1.65,0,0,0,161.52,314.18Z"/><path class="cls-3" d="M163.15,318.49h-3.26a1,1,0,0,1-1-1V314.2a1,1,0,0,1,1-1h3.26a1,1,0,0,1,1,1v3.26A1,1,0,0,1,163.15,318.49Zm-3.26-4.31,0,3.28,3.28,0s0,0,0,0V314.2Z"/><path class="cls-3" d="M113.39,318.49h-3.26a1,1,0,0,1-1-1V314.2a1,1,0,0,1,1-1h3.26a1,1,0,0,1,1,1v3.26A1,1,0,0,1,113.39,318.49Zm-3.26-4.31,0,3.28,3.28,0s0,0,0,0V314.2Z"/><path class="cls-3" d="M136.49,318.49a2.66,2.66,0,1,1,2.66-2.66A2.66,2.66,0,0,1,136.49,318.49Zm0-4.31a1.66,1.66,0,0,0,0,3.31,1.66,1.66,0,1,0,0-3.31Z"/><rect class="cls-3" x="127.79" y="313.68" width="1" height="4.31"/><rect class="cls-3" x="126.13" y="315.33" width="4.31" height="1"/><rect class="cls-3" x="119.46" y="321.91" width="1" height="4.31"/><rect class="cls-3" x="117.81" y="323.57" width="4.31" height="1"/><path class="cls-3" d="M153.19,318.49a2.66,2.66,0,1,1,2.66-2.66A2.66,2.66,0,0,1,153.19,318.49Zm0-4.31a1.66,1.66,0,1,0,1.66,1.65A1.65,1.65,0,0,0,153.19,314.18Z"/><path class="cls-3" d="M163.15,326.72h-3.26a1,1,0,0,1-1-1v-3.25a1,1,0,0,1,1-1h3.26a1,1,0,0,1,1,1v3.25A1,1,0,0,1,163.15,326.72Zm-3.26-4.31,0,3.28,3.28,0s0,0,0,0v-3.25Z"/><path class="cls-3" d="M169.72,318.49a2.66,2.66,0,1,1,2.66-2.66A2.66,2.66,0,0,1,169.72,318.49Zm0-4.31a1.66,1.66,0,0,0,0,3.31,1.66,1.66,0,1,0,0-3.31Z"/><rect class="cls-3" x="144.49" y="313.68" width="1" height="4.31"/><rect class="cls-3" x="142.84" y="315.33" width="4.31" height="1"/><rect class="cls-3" x="169.22" y="321.91" width="1" height="4.31"/><rect class="cls-3" x="167.57" y="323.57" width="4.31" height="1"/><path class="cls-3" d="M177.72,326.72a2.66,2.66,0,1,1,2.65-2.65A2.66,2.66,0,0,1,177.72,326.72Zm0-4.31a1.66,1.66,0,1,0,1.65,1.66A1.66,1.66,0,0,0,177.72,322.41Z"/><path class="cls-3" d="M185.92,318.49a2.66,2.66,0,1,1,2.65-2.66A2.67,2.67,0,0,1,185.92,318.49Zm0-4.31a1.66,1.66,0,1,0,1.65,1.65A1.66,1.66,0,0,0,185.92,314.18Z"/><path class="cls-3" d="M202.45,326.72a2.66,2.66,0,1,1,2.65-2.65A2.66,2.66,0,0,1,202.45,326.72Zm0-4.31a1.66,1.66,0,1,0,1.65,1.66A1.66,1.66,0,0,0,202.45,322.41Z"/><path class="cls-3" d="M195.87,326.72h-3.25a1,1,0,0,1-1-1v-3.25a1,1,0,0,1,1-1h3.25a1,1,0,0,1,1,1v3.25A1,1,0,0,1,195.87,326.72Zm-3.25-4.31,0,3.28,3.28,0a0,0,0,0,0,0,0v-3.25Z"/><path class="cls-3" d="M204.08,326.72h-3.26a1,1,0,0,1-1-1v-3.25a1,1,0,0,1,1-1h3.26a1,1,0,0,1,1,1v3.25A1,1,0,0,1,204.08,326.72Zm-3.26-4.31,0,3.28,3.29,0s0,0,0,0v-3.25Z"/><path class="cls-3" d="M179.35,318.49h-3.26a1,1,0,0,1-1-1V314.2a1,1,0,0,1,1-1h3.26a1,1,0,0,1,1,1v3.26A1,1,0,0,1,179.35,318.49Zm-3.26-4.31,0,3.28,3.29,0s0,0,0,0V314.2Z"/><rect class="cls-3" x="185.42" y="321.91" width="1" height="4.31"/><rect class="cls-3" x="183.76" y="323.57" width="4.31" height="1"/><path class="cls-3" d="M212.56,326.72h-3.22a1,1,0,0,1-1.05-1v-3.23a1,1,0,0,1,1.05-1h3.22a1,1,0,0,1,1,1v3.23A1,1,0,0,1,212.56,326.72Zm-3.22-4.31-.05,3.27,3.27,0a0,0,0,0,0,0,0v-3.23Z"/><path class="cls-3" d="M219.15,318.49a2.66,2.66,0,1,1,2.65-2.66A2.66,2.66,0,0,1,219.15,318.49Zm0-4.31a1.66,1.66,0,1,0,1.65,1.65A1.65,1.65,0,0,0,219.15,314.18Z"/><path class="cls-3" d="M229.1,326.72h-3.25a1,1,0,0,1-1-1v-3.25a1,1,0,0,1,1-1h3.25a1,1,0,0,1,1,1v3.25A1,1,0,0,1,229.1,326.72Zm-3.25-4.31,0,3.28,3.28,0a0,0,0,0,0,0,0v-3.25Z"/><rect class="cls-3" x="210.45" y="313.68" width="1" height="4.31"/><rect class="cls-3" x="208.79" y="315.33" width="4.31" height="1"/><rect class="cls-3" x="218.65" y="321.91" width="1" height="4.31"/><rect class="cls-3" x="217" y="323.57" width="4.31" height="1"/><rect class="cls-3" x="235.18" y="321.91" width="1" height="4.31"/><rect class="cls-3" x="233.52" y="323.57" width="4.31" height="1"/><path class="cls-2" d="M45.8,310.69A2.66,2.66,0,1,1,48.46,308,2.66,2.66,0,0,1,45.8,310.69Zm0-4.31A1.66,1.66,0,1,0,47.46,308,1.65,1.65,0,0,0,45.8,306.38Z"/><path class="cls-2" d="M54,302.45a2.66,2.66,0,1,1,2.65-2.65A2.66,2.66,0,0,1,54,302.45Zm0-4.31a1.66,1.66,0,1,0,1.65,1.66A1.66,1.66,0,0,0,54,298.14Z"/><path class="cls-2" d="M70.53,310.69A2.66,2.66,0,1,1,73.19,308,2.66,2.66,0,0,1,70.53,310.69Zm0-4.31A1.66,1.66,0,1,0,72.19,308,1.65,1.65,0,0,0,70.53,306.38Z"/><path class="cls-2" d="M64,310.69H60.7a1,1,0,0,1-1-1v-3.25a1,1,0,0,1,1-1H64a1,1,0,0,1,1,1v3.25A1,1,0,0,1,64,310.69Zm-3.26-4.31,0,3.28,3.28,0a0,0,0,0,0,0,0v-3.25Z"/><path class="cls-2" d="M47.43,302.45H44.18a1,1,0,0,1-1-1v-3.25a1,1,0,0,1,1-1h3.25a1,1,0,0,1,1,1v3.25A1,1,0,0,1,47.43,302.45Zm-3.25-4.31,0,3.28,3.28,0a0,0,0,0,0,0,0v-3.25Z"/><path class="cls-2" d="M72.16,310.69H68.91a1,1,0,0,1-1-1v-3.25a1,1,0,0,1,1-1h3.25a1,1,0,0,1,1,1v3.25A1,1,0,0,1,72.16,310.69Zm-3.25-4.31,0,3.28,3.28,0a0,0,0,0,0,0,0v-3.25Z"/><path class="cls-3" d="M95.56,302.45a2.66,2.66,0,1,1,2.66-2.65A2.65,2.65,0,0,1,95.56,302.45Zm0-4.31a1.66,1.66,0,1,0,1.66,1.66A1.65,1.65,0,0,0,95.56,298.14Z"/><path class="cls-3" d="M97.19,302.45H93.94a1,1,0,0,1-1-1v-3.25a1,1,0,0,1,1-1h3.25a1,1,0,0,1,1,1v3.25A1,1,0,0,1,97.19,302.45Zm-3.25-4.31,0,3.28,3.28,0a0,0,0,0,0,0,0v-3.25Z"/><path class="cls-2" d="M70.53,302.45a2.66,2.66,0,1,1,2.66-2.65A2.65,2.65,0,0,1,70.53,302.45Zm0-4.31a1.66,1.66,0,1,0,1.66,1.66A1.65,1.65,0,0,0,70.53,298.14Z"/><rect class="cls-2" x="53.51" y="305.88" width="1" height="4.31"/><rect class="cls-2" x="51.85" y="307.53" width="4.31" height="1"/><path class="cls-2" d="M80.65,310.69H77.42a1,1,0,0,1-1-1v-3.23a1,1,0,0,1,1-1h3.23a1,1,0,0,1,1,1v3.23A1,1,0,0,1,80.65,310.69Zm-3.23-4.31,0,3.27,3.27,0a0,0,0,0,0,0,0v-3.23Z"/><path class="cls-3" d="M87.24,302.45a2.66,2.66,0,1,1,2.65-2.65A2.66,2.66,0,0,1,87.24,302.45Zm0-4.31a1.66,1.66,0,1,0,1.65,1.66A1.66,1.66,0,0,0,87.24,298.14Z"/><path class="cls-3" d="M97.19,310.69H93.94a1,1,0,0,1-1-1v-3.25a1,1,0,0,1,1-1h3.25a1,1,0,0,1,1,1v3.25A1,1,0,0,1,97.19,310.69Zm-3.25-4.31,0,3.28,3.28,0a0,0,0,0,0,0,0v-3.25Z"/><path class="cls-3" d="M103.77,302.45a2.66,2.66,0,1,1,2.65-2.65A2.66,2.66,0,0,1,103.77,302.45Zm0-4.31a1.66,1.66,0,1,0,1.65,1.66A1.66,1.66,0,0,0,103.77,298.14Z"/><rect class="cls-2" x="78.54" y="297.64" width="1" height="4.31"/><rect class="cls-2" x="76.88" y="299.3" width="4.31" height="1"/><rect class="cls-3" x="86.74" y="305.88" width="1" height="4.31"/><rect class="cls-3" x="85.08" y="307.53" width="4.31" height="1"/><rect class="cls-3" x="103.27" y="305.88" width="1" height="4.31"/><rect class="cls-3" x="101.61" y="307.53" width="4.31" height="1"/><path class="cls-3" d="M111.76,310.69a2.66,2.66,0,1,1,2.65-2.66A2.66,2.66,0,0,1,111.76,310.69Zm0-4.31a1.66,1.66,0,1,0,1.65,1.65A1.65,1.65,0,0,0,111.76,306.38Z"/><path class="cls-3" d="M120,302.45a2.66,2.66,0,1,1,2.66-2.65A2.65,2.65,0,0,1,120,302.45Zm0-4.31a1.66,1.66,0,1,0,1.66,1.66A1.65,1.65,0,0,0,120,298.14Z"/><path class="cls-3" d="M136.49,310.69a2.66,2.66,0,1,1,2.66-2.66A2.66,2.66,0,0,1,136.49,310.69Zm0-4.31a1.66,1.66,0,1,0,1.66,1.65A1.65,1.65,0,0,0,136.49,306.38Z"/><path class="cls-3" d="M129.92,310.69h-3.26a1,1,0,0,1-1-1v-3.25a1,1,0,0,1,1-1h3.26a1,1,0,0,1,1,1v3.25A1,1,0,0,1,129.92,310.69Zm-3.26-4.31,0,3.28,3.29,0s0,0,0,0v-3.25Z"/><path class="cls-3" d="M138.12,310.69h-3.26a1,1,0,0,1-1-1v-3.25a1,1,0,0,1,1-1h3.26a1,1,0,0,1,1,1v3.25A1,1,0,0,1,138.12,310.69Zm-3.26-4.31,0,3.28,3.28,0a0,0,0,0,0,0,0v-3.25Z"/><path class="cls-3" d="M161.52,302.45a2.66,2.66,0,1,1,2.65-2.65A2.65,2.65,0,0,1,161.52,302.45Zm0-4.31a1.66,1.66,0,1,0,1.65,1.66A1.65,1.65,0,0,0,161.52,298.14Z"/><path class="cls-3" d="M163.15,302.45h-3.26a1,1,0,0,1-1-1v-3.25a1,1,0,0,1,1-1h3.26a1,1,0,0,1,1,1v3.25A1,1,0,0,1,163.15,302.45Zm-3.26-4.31,0,3.28,3.28,0s0,0,0,0v-3.25Z"/><path class="cls-3" d="M113.39,302.45h-3.26a1,1,0,0,1-1-1v-3.25a1,1,0,0,1,1-1h3.26a1,1,0,0,1,1,1v3.25A1,1,0,0,1,113.39,302.45Zm-3.26-4.31,0,3.28,3.28,0s0,0,0,0v-3.25Z"/><path class="cls-3" d="M136.49,302.45a2.66,2.66,0,1,1,2.66-2.65A2.65,2.65,0,0,1,136.49,302.45Zm0-4.31a1.66,1.66,0,1,0,1.66,1.66A1.65,1.65,0,0,0,136.49,298.14Z"/><rect class="cls-3" x="127.79" y="297.64" width="1" height="4.31"/><rect class="cls-3" x="126.13" y="299.3" width="4.31" height="1"/><path class="cls-3" d="M146.61,310.69h-3.23a1,1,0,0,1-1-1v-3.23a1,1,0,0,1,1-1h3.23a1,1,0,0,1,1,1v3.23A1,1,0,0,1,146.61,310.69Zm-3.23-4.31,0,3.27,3.27,0a0,0,0,0,0,0,0v-3.23Z"/><path class="cls-3" d="M153.19,302.45a2.66,2.66,0,1,1,2.66-2.65A2.65,2.65,0,0,1,153.19,302.45Zm0-4.31a1.66,1.66,0,1,0,1.66,1.66A1.65,1.65,0,0,0,153.19,298.14Z"/><path class="cls-3" d="M163.15,310.69h-3.26a1,1,0,0,1-1-1v-3.25a1,1,0,0,1,1-1h3.26a1,1,0,0,1,1,1v3.25A1,1,0,0,1,163.15,310.69Zm-3.26-4.31,0,3.28,3.28,0s0,0,0,0v-3.25Z"/><path class="cls-3" d="M169.72,302.45a2.66,2.66,0,1,1,2.66-2.65A2.65,2.65,0,0,1,169.72,302.45Zm0-4.31a1.66,1.66,0,1,0,1.66,1.66A1.65,1.65,0,0,0,169.72,298.14Z"/><rect class="cls-3" x="144.49" y="297.64" width="1" height="4.31"/><rect class="cls-3" x="142.84" y="299.3" width="4.31" height="1"/><rect class="cls-3" x="152.69" y="305.88" width="1" height="4.31"/><rect class="cls-3" x="151.04" y="307.53" width="4.31" height="1"/><rect class="cls-3" x="169.22" y="305.88" width="1" height="4.31"/><rect class="cls-3" x="167.57" y="307.53" width="4.31" height="1"/><path class="cls-3" d="M177.72,310.69a2.66,2.66,0,1,1,2.65-2.66A2.66,2.66,0,0,1,177.72,310.69Zm0-4.31a1.66,1.66,0,1,0,1.65,1.65A1.66,1.66,0,0,0,177.72,306.38Z"/><path class="cls-3" d="M202.45,310.69A2.66,2.66,0,1,1,205.1,308,2.66,2.66,0,0,1,202.45,310.69Zm0-4.31A1.66,1.66,0,1,0,204.1,308,1.66,1.66,0,0,0,202.45,306.38Z"/><path class="cls-3" d="M195.87,310.69h-3.25a1,1,0,0,1-1-1v-3.25a1,1,0,0,1,1-1h3.25a1,1,0,0,1,1,1v3.25A1,1,0,0,1,195.87,310.69Zm-3.25-4.31,0,3.28,3.28,0a0,0,0,0,0,0,0v-3.25Z"/><path class="cls-3" d="M204.08,310.69h-3.26a1,1,0,0,1-1-1v-3.25a1,1,0,0,1,1-1h3.26a1,1,0,0,1,1,1v3.25A1,1,0,0,1,204.08,310.69Zm-3.26-4.31,0,3.28,3.29,0s0,0,0,0v-3.25Z"/><path class="cls-3" d="M202.45,302.45a2.66,2.66,0,1,1,2.65-2.65A2.66,2.66,0,0,1,202.45,302.45Zm0-4.31a1.66,1.66,0,1,0,1.65,1.66A1.66,1.66,0,0,0,202.45,298.14Z"/><rect class="cls-3" x="193.75" y="297.64" width="1" height="4.31"/><rect class="cls-3" x="192.09" y="299.3" width="4.31" height="1"/><rect class="cls-3" x="185.42" y="305.88" width="1" height="4.31"/><rect class="cls-3" x="183.76" y="307.53" width="4.31" height="1"/><path class="cls-3" d="M212.56,310.69h-3.22a1,1,0,0,1-1.05-1v-3.23a1,1,0,0,1,1.05-1h3.22a1,1,0,0,1,1,1v3.23A1,1,0,0,1,212.56,310.69Zm-3.22-4.31-.05,3.27,3.27,0a0,0,0,0,0,0,0v-3.23Z"/><rect class="cls-3" x="218.65" y="305.88" width="1" height="4.31"/><rect class="cls-3" x="217" y="307.53" width="4.31" height="1"/><path class="cls-3" d="M562.77,326.46a2.66,2.66,0,1,1,2.65-2.65A2.66,2.66,0,0,1,562.77,326.46Zm0-4.31a1.66,1.66,0,1,0,0,3.31,1.66,1.66,0,0,0,0-3.31Z"/><path class="cls-3" d="M564.4,326.46h-3.26a1,1,0,0,1-1-1v-3.26a1,1,0,0,1,1-1h3.26a1,1,0,0,1,1,1v3.26A1,1,0,0,1,564.4,326.46Zm-3.26-4.31,0,3.29,3.29,0,0,0v-3.26Z"/><path class="cls-2" d="M587.8,318.23a2.66,2.66,0,1,1,2.65-2.66A2.66,2.66,0,0,1,587.8,318.23Zm0-4.31a1.66,1.66,0,1,0,1.65,1.65A1.66,1.66,0,0,0,587.8,313.92Z"/><path class="cls-2" d="M589.43,318.23h-3.26a1,1,0,0,1-1-1V314a1,1,0,0,1,1-1h3.26a1,1,0,0,1,1,1v3.25A1,1,0,0,1,589.43,318.23Zm-3.26-4.31,0,3.28,3.29,0s0,0,0,0V314Z"/><path class="cls-3" d="M572.88,326.46h-3.22a1,1,0,0,1-1-1V322.2a1,1,0,0,1,1-1.05h3.22a1,1,0,0,1,1,1.05v3.22A1,1,0,0,1,572.88,326.46Zm-3.22-4.31,0,3.27,3.26,0a0,0,0,0,0,0,0V322.2Z"/><path class="cls-3" d="M579.47,318.23a2.66,2.66,0,1,1,2.66-2.66A2.66,2.66,0,0,1,579.47,318.23Zm0-4.31a1.66,1.66,0,1,0,1.66,1.65A1.65,1.65,0,0,0,579.47,313.92Z"/><path class="cls-3" d="M596,318.23a2.66,2.66,0,1,1,2.65-2.66A2.66,2.66,0,0,1,596,318.23Zm0-4.31a1.66,1.66,0,1,0,1.65,1.65A1.65,1.65,0,0,0,596,313.92Z"/><path class="cls-2" d="M589.43,326.46h-3.26a1,1,0,0,1-1-1v-3.26a1,1,0,0,1,1-1h3.26a1,1,0,0,1,1,1v3.26A1,1,0,0,1,589.43,326.46Zm-3.26-4.31,0,3.29,3.29,0a0,0,0,0,0,0,0v-3.26Z"/><rect class="cls-2" x="595.5" y="321.65" width="1" height="4.31"/><rect class="cls-2" x="593.85" y="323.31" width="4.31" height="1"/><path class="cls-2" d="M589.43,310.43h-3.26a1,1,0,0,1-1-1v-3.25a1,1,0,0,1,1-1h3.26a1,1,0,0,1,1,1v3.25A1,1,0,0,1,589.43,310.43Zm-3.26-4.31,0,3.28,3.29,0s0,0,0,0v-3.25Z"/><path class="cls-2" d="M596,302.19a2.66,2.66,0,1,1,2.65-2.65A2.65,2.65,0,0,1,596,302.19Zm0-4.31a1.66,1.66,0,1,0,1.65,1.66A1.66,1.66,0,0,0,596,297.88Z"/><rect class="cls-3" x="578.97" y="305.62" width="1" height="4.31"/><rect class="cls-3" x="577.32" y="307.28" width="4.31" height="1"/><rect class="cls-2" x="595.5" y="305.62" width="1" height="4.31"/><rect class="cls-2" x="593.85" y="307.28" width="4.31" height="1"/></g></g></g></svg>