<?xml version="1.0" encoding="utf-8"?>
<!-- Generator: Adobe Illustrator 23.1.0, SVG Export Plug-In . SVG Version: 6.00 Build 0)  -->
<svg version="1.1" id="af24c1d2-8586-4e6b-81b3-4cf1a6f0777f"
	 xmlns="http://www.w3.org/2000/svg" xmlns:xlink="http://www.w3.org/1999/xlink" x="0px" y="0px" viewBox="0 0 961.8 436.8"
	 style="enable-background:new 0 0 961.8 436.8;" xml:space="preserve">
<style type="text/css">
	.st0{fill:#FF7F50;}
	.st1{fill:#3F3D56;}
	.st2{fill:#FFB8B8;}
	.st3{fill:#D0CDE1;}
	.st4{fill:#2F2E41;}
	.st5{fill:none;stroke:#D0CDE1;stroke-width:2;stroke-miterlimit:10;}
	.st6{fill:#A0616A;}
	.st7{fill:#6C63FF;}
</style>
<path class="st0" d="M470.8,363.1c14.4,15.4,15.1,38.1,15.1,38.1s-22.6-2.3-36.9-17.8s-15.1-38.1-15.1-38.1S456.4,347.7,470.8,363.1
	z"/>
<path class="st0" d="M516,387.2c-15.4,14.4-38.1,15.1-38.1,15.1s2.3-22.6,17.8-36.9s38.1-15.1,38.1-15.1S531.5,372.8,516,387.2z"/>
<path class="st1" d="M512.2,433h-56.7c-2.2,0-4.2-1.3-5.2-3.3l-12.4-25.4c-1.4-2.9-0.2-6.4,2.7-7.8c0.8-0.4,1.7-0.6,2.5-0.6h81.4
	c3.2,0,5.8,2.6,5.8,5.8c0,0.9-0.2,1.7-0.6,2.5l-12.4,25.4C516.5,431.7,514.4,433,512.2,433z"/>
<circle class="st2" cx="767" cy="76.1" r="47.2"/>
<path class="st2" d="M731.8,99.7c0,0,8.9,67.1-4.8,74.6s81.5,8.2,81.5,8.2s-21.2-58.2-11.6-76L731.8,99.7z"/>
<path class="st3" d="M878,182.9l-7.9,36l-16.8,76.3l-0.5,4.2l-5.8,48.3l-3.8,32.1l-2.6,21.6c-15.7,8-27,13.6-27,13.6
	s-1-4.9-2.6-11.2c-11,3.3-31.3,8.8-48.6,9.9c6.3,7,9.2,13.6,5.2,18.4c-11.8,14.6-60.5-16-77.6-27.4c-0.4,2.7-0.6,5.5-0.5,8.3l-13-10
	l1.3-23.1l2.2-39.1l2.7-49c-0.9-2.1-1.6-4.3-2.2-6.5c-4-14.2-8.8-42.6-12.6-66.4c-3-19.1-5.2-35.3-5.7-38.8l-0.1-0.7l72.2-31.9
	c5.1,11.9,29.1,15.5,29.1,15.5c19.9-1.4,35.4-11.8,35.4-11.8L878,182.9z"/>
<path class="st2" d="M819.1,401.3c0,0-3.1,1-8,2.5c-11,3.3-31.3,8.8-48.6,9.9c-14.8,1-27.4-1.3-29.7-11c-1-4.2,0.4-7.6,3.5-10.4
	c9.1-8.4,32.8-11.4,51.6-12.5c5.3-0.3,10.2-0.4,14.3-0.5c6.9-0.1,11.5,0.1,11.5,0.1l0.1,0.4L819.1,401.3z"/>
<path class="st4" d="M727.7,31.4l-8.8-3.5c0,0,18.5-20.3,44.2-18.6l-7.2-8c0,0,17.7-7.1,33.7,11.5C798,22.6,807.8,34,813.9,47h9.5
	l-4,8.7l13.8,8.7L819,62.8c0.8,4.8,1,9.6,0.4,14.4c-0.6,4.8-3.1,9.2-6.8,12.2l0,0c0,0-11-22.7-11-26.2v8.8c0,0-8.8-8-8.8-13.3
	L788,65l-2.4-9.7L755.8,65l4.8-8l-18.5,2.7l7.2-9.7c0,0-20.9,11.5-21.7,21.2s-6.9,18.9-6.9,18.9S704.4,44.6,727.7,31.4z"/>
<path class="st3" d="M929.3,348.6c-4.8,5.2-16.7,13.1-31.2,21.6c-5.4,3.2-11.1,6.4-17,9.7c-13.9,7.7-28.5,15.4-40.6,21.6
	c-15.7,8-27,13.6-27,13.6s-1-4.9-2.6-11.2c-2.1-8.4-5.3-19.2-8.6-24c-0.1-0.2-0.2-0.3-0.3-0.5c-1-1.3-1.9-2-2.9-2l47.8-29.7
	l20.7-12.8l-14.9-35.5l-18.7-44.6l11.3-35.9l11.3-36H878c0,0,7,15.3,16,36.7c1.3,3.2,2.7,6.5,4.2,10
	C916.6,274.6,939.7,337.4,929.3,348.6z"/>
<path class="st2" d="M767.7,432.1c-11.8,14.6-60.5-16-77.6-27.4c-3.7-2.5-5.9-4.1-5.9-4.1l15.6-20.8l4.9-6.6c0,0,4.4,2.4,11,6.2
	l0.7,0.4c5.6,3.3,12.7,7.6,19.8,12.5c9.8,6.7,19.8,14.3,26.2,21.4C768.7,420.7,771.6,427.2,767.7,432.1z"/>
<path class="st3" d="M715.7,379.4c-1.7,0-3.5,0.1-5.2,0.4c-14.8,2.5-19.1,15.9-20.4,24.9c-0.4,2.7-0.6,5.5-0.5,8.3l-13-10l-4.8-3.7
	c-11.4-4-21.6-11.1-30.5-19.4c-7.7-7.4-14.5-15.5-20.5-24.3c-6-8.7-11.3-17.8-15.9-27.3c-2.6-5.3-2.7-11.6-0.3-17l16.2-36l23.6-52.6
	c0.2-1.2,0.4-2.5,0.6-3.7c4.7-26.9,17.2-38.8,17.2-38.8h9.6l6.4,38.8l8,48.2l-5.6,18.2l-12.9,42l12.3,13.4L715.7,379.4z"/>
<path class="st0" d="M726.5,267.1l8.2,9.6c3-0.6,6.2-1.3,9.5-2l-2.4-7.5l5.8,6.7c34.7-8.5,77.7-25.1,77.7-25.1s-46.4,3.4-81.1-4.2
	c-15.3-3.4-31.1,4.2-37.4,18.6c-3.7,8.4-3.1,15.6,9.9,15.6c4.4-0.1,8.8-0.5,13.1-1.2L726.5,267.1z"/>
<path class="st1" d="M913.3,424.3v3.9c0,1.1-0.2,2.1-0.6,3.1c-0.2,0.4-0.4,0.9-0.6,1.3c-1.6,2.6-4.4,4.2-7.4,4.2H617.8
	c-3,0-5.9-1.6-7.4-4.2c-0.2-0.4-0.5-0.8-0.6-1.3c-0.4-1-0.6-2.1-0.6-3.1v-3.9c0-4.8,3.8-8.6,8.6-8.6c0,0,0,0,0,0h16.5v-1.8
	c0-0.2,0.2-0.4,0.4-0.4h8.6c0.2,0,0.4,0.2,0.4,0.4l0,0v1.8h5.4v-1.8c0-0.2,0.2-0.4,0.4-0.4h8.6c0.2,0,0.4,0.2,0.4,0.4l0,0v1.8h5.4
	v-1.8c0-0.2,0.2-0.4,0.3-0.4h8.6c0.2,0,0.4,0.2,0.4,0.4l0,0v1.8h5.4v-1.8c0-0.2,0.2-0.4,0.4-0.4h8.6c0.2,0,0.4,0.2,0.4,0.4l0,0v1.8
	h5.4v-1.8c0-0.2,0.2-0.4,0.4-0.4h8.6c0.2,0,0.4,0.2,0.4,0.4l0,0v1.8h5.4v-1.8c0-0.2,0.2-0.4,0.3-0.4h8.6c0.2,0,0.4,0.2,0.4,0.4l0,0
	v1.8h5.4v-1.8c0-0.2,0.2-0.4,0.4-0.4h67.6c0.2,0,0.4,0.2,0.4,0.4l0,0v1.8h5.4v-1.8c0-0.2,0.2-0.4,0.3-0.4h8.6c0.2,0,0.4,0.2,0.4,0.4
	v1.8h5.4v-1.8c0-0.2,0.2-0.4,0.4-0.4h8.6c0.2,0,0.4,0.2,0.4,0.4l0,0v1.8h5.5v-1.8c0-0.2,0.2-0.4,0.4-0.4h8.6c0.2,0,0.4,0.2,0.4,0.4
	l0,0v1.8h5.4v-1.8c0-0.2,0.2-0.4,0.3-0.4h8.6c0.2,0,0.4,0.2,0.4,0.4v1.8h5.4v-1.8c0-0.2,0.2-0.4,0.4-0.4h8.6c0.2,0,0.4,0.2,0.4,0.4
	l0,0v1.8h5.4v-1.8c0-0.2,0.2-0.4,0.4-0.4h8.6c0.2,0,0.4,0.2,0.4,0.4l0,0v1.8h25.1C909.5,415.6,913.3,419.5,913.3,424.3
	C913.3,424.3,913.3,424.3,913.3,424.3L913.3,424.3z"/>
<path class="st1" d="M890.2,260H783.3v-2.2h-48.5v2.2H627.4c-4,0-7.2,3.2-7.2,7.2l0,0v146.5c0,4,3.2,7.2,7.2,7.2h262.8
	c4,0,7.2-3.2,7.2-7.2l0,0V267.3C897.5,263.3,894.2,260,890.2,260L890.2,260z"/>
<circle class="st5" cx="759" cy="311.2" r="16.1"/>
<circle class="st3" cx="753.9" cy="316.9" r="16.1"/>
<circle class="st4" cx="282.3" cy="165.7" r="23.4"/>
<path class="st4" d="M288.8,143c12.9,0,23.4,10.5,23.4,23.4c0,3.9-1,7.7-2.8,11.1c8.2-9.9,6.9-24.7-3.1-32.9
	c-9.9-8.2-24.7-6.9-32.9,3.1c-0.2,0.2-0.4,0.4-0.5,0.7c-0.9,1.1-1.7,2.3-2.3,3.5C275,146.2,281.7,143,288.8,143z"/>
<circle class="st4" cx="238.6" cy="97" r="68.7"/>
<path class="st4" d="M184.7,54.3c24.6-27.7,66.7-30.8,95.2-7.2c-0.6-0.5-1.1-1.1-1.7-1.6c-28.6-24.9-72-21.9-96.9,6.7
	c-24.6,28.2-22.1,70.9,5.6,96c0.6,0.5,1.2,1,1.8,1.5C161.9,124.2,160.1,82,184.7,54.3z"/>
<circle class="st6" cx="238" cy="120.8" r="44.2"/>
<path class="st6" d="M206.6,134.8c0,0,5.8,53.6-3.5,59.4s53.6,14,53.6,14s-9.3-58.2,14-73.3L206.6,134.8z"/>
<path class="st3" d="M262.5,184.9c0,0,17.3-8.1-7.6-5.2s-46.5-8.2-46.5-8.2s-7.6-7.6-8.7,0.6s3.5,23.3-22.1,25.6
	s-48.9-4.7-58.2,12.8s-4.7,93.1-4.7,93.1s17.5,62.9,31.4,72.2s136.2-3.5,136.2-3.5l34.9-62.9v-73.3c0,0-4.7-25.6-37.2-18.6
	c0,0-21-4.7-19.8-15.1S262.5,184.9,262.5,184.9z"/>
<path class="st4" d="M150.7,420.3c0.7-3.1,1.2-4.9,1.2-4.9l-0.4-2.5l-3.8-26l-1.6-11c14-5.8,17.5-32.6,17.5-32.6l0.5-0.3l2.4-1.4
	l0,0l8.6-5.1l0.2-0.1l3.5,2.3l7,4.7c18.6,13.9,42.2,19.3,65,14.9c5.2-0.9,10.4-2.4,15.3-4.4l17-5.7l0.5-0.2l0.5,0.1l9.9,1.5h0.2
	l0.8,0.1l-2.3,15.9l-3.3,23.1c8.8,4.7,16.6,13.4,23.5,24.2c1.5,2.4,3,4.9,4.4,7.5c1.9,3.3,3.6,6.8,5.3,10.4c0.2,0.4,0.4,0.9,0.6,1.3
	c0.6,1.4,1.3,2.8,1.9,4.2H147.6c0.2-1.4,0.5-2.8,0.7-4.1v-0.1c0.1-0.4,0.2-0.9,0.2-1.3C149.3,426.4,150.1,422.9,150.7,420.3z"/>
<path class="st4" d="M143.7,196.5c0,0,12.8,23.3,8.1,52.4s14,101.3,14,101.3l14-3.5c0,0-9.3-60.5-7-74.5s2.3-68.7-9.3-75.7
	S143.7,196.5,143.7,196.5z"/>
<path class="st4" d="M279.1,220.7l4.9,128.9l9.3,5.8c0,0,13.4-141.4,6.4-141.4h-14.2c-3.5,0-6.4,2.9-6.4,6.4
	C279.1,220.5,279.1,220.6,279.1,220.7z"/>
<circle class="st7" cx="172.3" cy="341.5" r="5.8"/>
<circle class="st7" cx="288.7" cy="347.3" r="5.8"/>
<polygon class="st4" points="200.2,65.5 200.2,109.8 210.4,109.8 223.5,95.8 221.7,109.8 267,109.8 264.2,95.8 269.8,109.8 
	277,109.8 277,65.5 "/>
<ellipse class="st6" cx="193.2" cy="111.5" rx="3.5" ry="6.4"/>
<ellipse class="st6" cx="282.9" cy="111.5" rx="3.5" ry="6.4"/>
<path class="st6" d="M306.7,346.7c0,0-53-9.9-56.5,7.6s58.8,9.9,58.8,9.9L306.7,346.7z"/>
<path class="st3" d="M305.6,226.8c0,0,126.9,101.3,103.6,125.7S297.4,370,297.4,370l5.8-29.1l51.2-5.9l-25.6-25.6l-23.3,2.3
	L305.6,226.8z"/>
<path class="st6" d="M118.1,395.6l16.3,12.8c0,0,11.6,36.1,29.1,25.6s-16.3-47.7-16.3-47.7l-19.8-7L118.1,395.6z"/>
<path class="st3" d="M134.4,208.1l-16.2,4.9c0,0-113,83.6-117.6,106.9S22.7,356,22.7,356L124,403.7l10.5-27.9l-47.8-24.5
	c0,0,3.5-7-10.5-8.1s-16.3-16.3-16.3-16.3s27.9-43.1,43.1-33.8s19.8,16.3,19.8,16.3L134.4,208.1z"/>
<path class="st1" d="M366.3,424.3v3.9c0,1.1-0.2,2.1-0.6,3.1c-0.2,0.4-0.4,0.9-0.6,1.3c-1.6,2.6-4.4,4.2-7.4,4.2H70.8
	c-3,0-5.9-1.6-7.4-4.2c-0.2-0.4-0.5-0.8-0.6-1.3c-0.4-1-0.6-2.1-0.6-3.1v-3.9c0-4.8,3.8-8.6,8.6-8.6c0,0,0,0,0,0h16.5v-1.8
	c0-0.2,0.2-0.4,0.4-0.4h8.6c0.2,0,0.4,0.2,0.4,0.4l0,0v1.8h5.4v-1.8c0-0.2,0.2-0.4,0.4-0.4h8.6c0.2,0,0.4,0.2,0.4,0.4l0,0v1.8h5.4
	v-1.8c0-0.2,0.2-0.4,0.4-0.4h8.6c0.2,0,0.4,0.2,0.4,0.4l0,0v1.8h5.4v-1.8c0-0.2,0.2-0.4,0.4-0.4h8.6c0.2,0,0.4,0.2,0.4,0.4l0,0v1.8
	h5.4v-1.8c0-0.2,0.2-0.4,0.4-0.4h8.6c0.2,0,0.4,0.2,0.4,0.4l0,0v1.8h5.4v-1.8c0-0.2,0.2-0.4,0.4-0.4h8.6c0.2,0,0.4,0.2,0.4,0.4l0,0
	v1.8h5.4v-1.8c0-0.2,0.2-0.4,0.4-0.4h67.6c0.2,0,0.4,0.2,0.4,0.4l0,0v1.8h5.4v-1.8c0-0.2,0.2-0.4,0.4-0.4h8.6c0.2,0,0.4,0.2,0.4,0.4
	v1.8h5.4v-1.8c0-0.2,0.2-0.4,0.4-0.4h8.6c0.2,0,0.4,0.2,0.4,0.4l0,0v1.8h5.4v-1.8c0-0.2,0.2-0.4,0.4-0.4h8.6c0.2,0,0.4,0.2,0.4,0.4
	l0,0v1.8h5.4v-1.8c0-0.2,0.2-0.4,0.4-0.4h8.6c0.2,0,0.4,0.2,0.4,0.4v1.8h5.4v-1.8c0-0.2,0.2-0.4,0.4-0.4h8.6c0.2,0,0.4,0.2,0.4,0.4
	l0,0v1.8h5.4v-1.8c0-0.2,0.2-0.4,0.4-0.4h8.6c0.2,0,0.4,0.2,0.4,0.4l0,0v1.8h25.2C362.4,415.6,366.3,419.5,366.3,424.3
	C366.3,424.3,366.3,424.3,366.3,424.3L366.3,424.3z"/>
<path class="st1" d="M343.2,260H236.2v-2.2h-48.5v2.2H80.4c-4,0-7.2,3.2-7.2,7.2c0,0,0,0,0,0v146.5c0,4,3.2,7.2,7.2,7.2c0,0,0,0,0,0
	h262.8c4,0,7.2-3.2,7.2-7.2c0,0,0,0,0,0V267.3C350.4,263.3,347.2,260,343.2,260C343.2,260,343.2,260,343.2,260z"/>
<circle class="st5" cx="212" cy="311.1" r="16.1"/>
<circle class="st3" cx="206.8" cy="316.9" r="16.1"/>
<rect x="11.9" y="432" class="st1" width="950" height="2"/>
</svg>
