<?xml version="1.0" encoding="utf-8"?>
<!-- Generator: Adobe Illustrator 24.2.0, SVG Export Plug-In . SVG Version: 6.00 Build 0)  -->
<svg version="1.1" id="a6ee8617-cc99-4eb9-a93b-e1a7e83c9724"
	 xmlns="http://www.w3.org/2000/svg" xmlns:xlink="http://www.w3.org/1999/xlink" x="0px" y="0px" viewBox="0 0 1088 826.29"
	 style="enable-background:new 0 0 1088 826.29;" xml:space="preserve">
<style type="text/css">
	.st0{fill:#E8EAD3;}
	.st1{opacity:0.1;enable-background:new    ;}
	.st2{fill:#3F3D56;}
	.st3{fill:#F96D02;}
	.st4{fill:#FF9C71;}
	.st5{fill:#A8A8A8;}
	.st6{opacity:0.2;enable-background:new    ;}
	.st7{fill:#FFB9B9;}
	.st8{fill:#D0CDE1;}
	.st9{fill:#2F2E41;}
	.st10{fill:#A0616A;}
	.st11{fill:#575A89;}
	.st12{fill:#654062;}
</style>
<path class="st0" d="M934.99,329.39C887.17,141.35,721.93,5.61,527.99,0.17C425.45-2.71,317.56,31.29,239,150.29
	c-140.43,212.73,8.63,359.73,112.55,429.58c50.2,33.81,95.44,74.47,134.4,120.8c70.19,83.3,205.23,186.8,366.05,24.62
	C968.56,607.75,966.84,454.64,934.99,329.39z"/>
<polygon class="st1" points="719.6,507.39 818,409.29 719.6,311.19 749.6,281.29 878,409.29 749.6,537.29 719.6,507.39 "/>
<path class="st1" d="M462.24,485.29h40v-40h-40L462.24,485.29z M663.04,445.29h-40v40h40V445.29z M542.64,485.29h40v-40h-40V485.29z
	"/>
<polygon class="st1" points="384.4,506.39 285.9,408.29 384.3,310.19 354.3,280.29 226,408.29 354.4,536.29 "/>
<path class="st2" d="M1088,752.29c0,16.57-243.56,74-544,74s-544-57.43-544-74s243.56,14,544,14S1088,735.73,1088,752.29z"/>
<path class="st1" d="M1088,752.29c0,16.57-243.56,74-544,74s-544-57.43-544-74s243.56,14,544,14S1088,735.73,1088,752.29z"/>
<ellipse class="st2" cx="544" cy="752.29" rx="544" ry="30"/>
<path class="st2" d="M632.7,607.95c0,64.02,40.16,115.82,89.79,115.82"/>
<path class="st3" d="M722.49,723.77c0-64.74,44.82-117.12,100.2-117.12"/>
<path class="st4" d="M665.23,613.76c0,60.81,25.61,110.01,57.26,110.01"/>
<path class="st2" d="M722.49,723.77c0-82.72,51.8-149.65,115.82-149.65"/>
<path class="st5" d="M703.6,724.59c0,0,12.73-0.39,16.57-3.12s19.59-6,20.54-1.61s19.14,21.8,4.76,21.91s-33.4-2.24-37.23-4.57
	S703.6,724.59,703.6,724.59z"/>
<path class="st6" d="M745.73,740.24c-14.38,0.12-33.4-2.24-37.23-4.57c-2.92-1.78-4.08-8.15-4.47-11.09
	c-0.27,0.01-0.43,0.02-0.43,0.02s0.81,10.27,4.64,12.6s22.86,4.69,37.23,4.57c4.15-0.03,5.58-1.51,5.5-3.7
	C750.4,739.39,748.81,740.21,745.73,740.24z"/>
<path class="st7" d="M865.53,382.85c0,0-30.79-23.38-33.13-14.81S855,396.09,855,396.09L865.53,382.85z"/>
<path class="st1" d="M865.53,382.85c0,0-30.79-23.38-33.13-14.81S855,396.09,855,396.09L865.53,382.85z"/>
<path class="st8" d="M967.17,308.84c0,0-36.61,65.44-37.39,74.78s-0.78,10.13-3.89,9.35s-45.96-5.45-49.86-3.89
	s-11.68-9.35-11.68-9.35s-14.8,14.8-11.68,17.92s12.46,4.67,14.02,8.57s3.89,7.79,10.91,7.01s54.53,12.46,60.76,10.13
	s7.79-6.23,10.91-6.23s9.35-3.12,9.35-3.89s21.81-42.07,21.81-42.07S1006.12,315.07,967.17,308.84z"/>
<path class="st1" d="M967.17,308.84c0,0-36.61,65.44-37.39,74.78s-0.78,10.13-3.89,9.35s-45.96-5.45-49.86-3.89
	s-11.68-9.35-11.68-9.35s-14.8,14.8-11.68,17.92s12.46,4.67,14.02,8.57s3.89,7.79,10.91,7.01s54.53,12.46,60.76,10.13
	s7.79-6.23,10.91-6.23s9.35-3.12,9.35-3.89s21.81-42.07,21.81-42.07S1006.12,315.07,967.17,308.84z"/>
<path class="st9" d="M914.05,265.7c-0.33,4.14-0.26,8.3,0.2,12.42c1.18,8.95,5.3,18.28,1.41,26.63c-1.41,3.03-3.81,5.67-5.11,8.74
	c-2.76,6.5-0.26,13.7-0.63,20.62c-0.48,8.93-6.17,17.54-14.81,22.43c14.76,0.46,28.8-6.84,38.09-16.79s14.46-22.28,18.34-34.63
	c1.99-5.8,3.27-11.82,3.8-17.92c0.31-3.51-0.1-7.04-1.21-10.39c-1.36-3.27-3.16-6.33-5.34-9.12c-2.33-3.27-4.72-6.61-8.15-9.04
	c-4.23-3-12.38-6.01-17.99-5.57C915.79,253.63,914.34,260.93,914.05,265.7z"/>
<path class="st7" d="M936.79,290.15c0,0,8.57,30.38,1.56,38.95s42.07-3.89,42.07-3.89s-24.15-24.15-12.46-39.73L936.79,290.15z"/>
<path class="st1" d="M936.79,290.15c0,0,8.57,30.38,1.56,38.95s42.07-3.89,42.07-3.89s-24.15-24.15-12.46-39.73L936.79,290.15z"/>
<polygon class="st4" points="719.6,488.39 818,390.29 719.6,292.19 749.6,262.29 878,390.29 749.6,518.29 719.6,488.39 "/>
<polygon class="st7" points="908.75,695.22 908.75,717.81 920.43,731.83 930.56,727.16 927.44,694.44 "/>
<path class="st9" d="M913.42,716.25c0,0-3.12-10.91-8.57-3.12s-10.91,24.93-14.02,25.71s-24.93,24.93-3.12,24.93
	s28.82-10.13,28.82-10.13s21.81-8.57,21.81-10.13s-3.12-30.38-4.67-30.38s-2.34,5.45-6.23,5.45S913.42,716.25,913.42,716.25z"/>
<polygon class="st7" points="960.94,699.12 960.16,720.15 978.86,727.94 978.86,697.56 "/>
<path class="st9" d="M981.19,720.15c0,0-10.13-10.91-15.58-8.57c-2.7,1.09-5.3,2.39-7.79,3.89c0,0-3.12,10.13-4.67,18.7
	s-2.34,12.46-3.89,15.58s-3.12,14.8,12.46,16.36c15.58,1.56,20.25-7.01,20.25-7.01l3.89-20.25
	C985.87,738.84,984.31,720.15,981.19,720.15z"/>
<path class="st9" d="M918.88,474.77c0,0-22.59,50.63-19.47,96.59c0,0-7.79,17.92-3.12,45.96s10.91,84.13,10.91,84.13
	s21.03,2.34,22.59-1.56c0,0,1.56-38.95,3.12-40.51s-0.78-37.39-3.12-44.4s21.81-76.34,21.81-76.34l-6.23-86.47L918.88,474.77z"/>
<path class="st1" d="M918.88,474.77c0,0-22.59,50.63-19.47,96.59c0,0-7.79,17.92-3.12,45.96s10.91,84.13,10.91,84.13
	s21.03,2.34,22.59-1.56c0,0,1.56-38.95,3.12-40.51s-0.78-37.39-3.12-44.4s21.81-76.34,21.81-76.34l-6.23-86.47L918.88,474.77z"/>
<path class="st9" d="M912.64,471.65l14.8,31.94c0,0,7.01,72.45,10.91,81.79c0,0,1.56,26.49,8.57,35.05s12.46,84.13,12.46,84.13
	s19.47,5.45,21.03,0s6.23-42.84,6.23-42.84s1.56-31.94-7.01-52.97s10.13-96.59,10.13-96.59s19.47-36.61-8.57-66.21L912.64,471.65z"
	/>
<circle class="st7" cx="953.93" cy="267.56" r="31.94"/>
<path class="st8" d="M983.53,315.85c0,0-33.5,0-38.17,3.89c-2.4,2.28-6.17,2.28-8.57,0c0,0-11.68,0.78-14.8,10.13
	s-12.46,21.81-12.46,21.81s-14.02,10.13-6.23,36.61s1.56,69.33,1.56,69.33s-6.23,9.35,0,13.24s8.57,5.45,7.79,8.57
	s70.89-25.71,70.89-31.16s-1.56-10.13,0-12.46s3.12-6.23,1.56-10.13s1.56-4.67,0.78-8.57s3.9-32.72,7.01-45.18
	S995.22,316.63,983.53,315.85z"/>
<path class="st7" d="M865.53,392.2c0,0-30.79-23.38-33.13-14.81S855,405.44,855,405.44L865.53,392.2z"/>
<path class="st8" d="M967.17,319.75c0,0-36.61,65.44-37.39,74.78s-0.78,10.13-3.89,9.35s-45.96-5.45-49.86-3.89
	s-11.68-9.35-11.68-9.35s-14.8,14.8-11.68,17.92s12.46,4.67,14.02,8.57s3.89,7.79,10.91,7.01s54.53,12.46,60.76,10.13
	s7.79-6.23,10.91-6.23s9.35-3.12,9.35-3.89s21.81-42.07,21.81-42.07S1006.12,325.98,967.17,319.75z"/>
<path class="st9" d="M938.11,287.96c-0.44-3.16-2.06-6.03-2.89-9.12c-1.31-4.99-0.54-10.3,2.15-14.7
	c4.58-7.4,13.58-10.68,19.85-16.71c0.13,3.07,2.26,5.7,4.62,7.67c2.36,1.98,5.06,3.58,7.05,5.92c1.92,2.47,3.31,5.3,4.11,8.32
	c1.23,3.5,1.78,7.21,1.62,10.92c-0.18,3.75-1.89,7.25-4.73,9.7c-2.34,1.85-5.6,2.9-6.73,5.66c-0.44,1.38-0.57,2.84-0.38,4.27
	c0.53,8.57,1.03,17.29-0.98,25.64s-6.96,16.41-14.71,20.11c6.37,0.45,12.87,0.89,19.05-0.72c6.18-1.61,12.09-5.66,14.22-11.67
	c1.05-2.97,1.15-6.27,2.64-9.04c3.78-7.02,14.21-7.34,19.34-13.44c2.05-2.44,3.04-5.59,3.78-8.69c4.33-18.26,1.29-37.66-5.3-55.23
	c-2.27-6.06-5.1-12.16-9.97-16.42c-4.15-3.62-9.44-5.62-14.67-7.32c-7.64-2.49-15.51-4.53-23.54-4.79c-3.49-0.2-6.99,0.2-10.33,1.21
	c-3.3,1.19-6.38,2.95-9.09,5.18c-12.58,9.79-21.14,25.43-20.01,41.33c0.69,9.62,4.76,18.72,10,26.82c1.83,2.83,6.16,8.87,10.18,7.09
	C937.04,298.33,938.59,291.38,938.11,287.96z"/>
<path class="st4" d="M456.6,463.38h40v-40h-40L456.6,463.38z M657.4,423.38h-40v40h40V423.38z M537,463.38h40v-40h-40V463.38z"/>
<ellipse class="st9" cx="206.21" cy="211.84" rx="33.66" ry="26.25"/>
<path class="st10" d="M211.93,392.58c0,0,30.29,2.02,35.68-2.02s28.27,5.39,30.29,10.77s-32.31,6.06-37.7,6.06
	s-30.96,8.08-30.96,8.08L211.93,392.58z"/>
<path class="st9" d="M149.55,706.14c0,0-14.12,35.6-6.75,39.9s84.7,1.23,84.7,1.23s12.89-7.98-1.84-13.5c0,0-12.28-0.61-20.25-5.52
	s-17.19-14.12-17.19-14.12s-0.61-13.5-5.52-10.43c-2.97,1.96-4.98,5.08-5.52,8.59L149.55,706.14z"/>
<path class="st1" d="M149.55,706.14c0,0-14.12,35.6-6.75,39.9s84.7,1.23,84.7,1.23s12.89-7.98-1.84-13.5c0,0-12.28-0.61-20.25-5.52
	s-17.19-14.12-17.19-14.12s-0.61-13.5-5.52-10.43c-2.97,1.96-4.98,5.08-5.52,8.59L149.55,706.14z"/>
<polygon class="st4" points="384.4,487.39 285.9,389.29 384.3,291.19 354.3,261.29 226,389.29 354.4,517.29 "/>
<path class="st9" d="M127.79,717.03c0,0-15.48,39.04-7.4,43.75s92.89,1.35,92.89,1.35s14.14-8.75-2.02-14.81
	c0,0-13.46-0.67-22.21-6.06s-18.85-15.48-18.85-15.48s-0.67-14.81-6.06-11.44c-3.26,2.15-5.46,5.57-6.06,9.42L127.79,717.03z"/>
<path class="st9" d="M207.22,469.31l-9.42,84.82c0,0-3.37,40.39-13.46,49.14c0,0,0,12.79-3.37,16.83l-4.71,53.18
	c0,0,6.73,19.52,6.06,22.89s2.69,14.14,2.02,15.48s-32.31,0-32.31,0l6.73-108.38l20.87-150.78L207.22,469.31z"/>
<path class="st1" d="M207.22,469.31l-9.42,84.82c0,0-3.37,40.39-13.46,49.14c0,0,0,12.79-3.37,16.83l-4.71,53.18
	c0,0,6.73,19.52,6.06,22.89s2.69,14.14,2.02,15.48s-32.31,0-32.31,0l6.73-108.38l20.87-150.78L207.22,469.31z"/>
<path class="st9" d="M190.39,466.62c0,0-7.4,69.33-10.77,84.14c-2.12,9.75-3.47,19.66-4.04,29.62c0,0-0.67,21.54-6.73,27.6
	c-3.58,3.55-5.53,8.42-5.39,13.46c0,0-6.06,67.99-2.69,76.06s6.73,14.81,3.37,20.19s-40.39,5.39-40.39,1.35s0-7.4-2.02-9.42
	s0-14.81,0-14.81s-8.08-59.91-0.67-77.41s10.77-65.29,10.77-65.29s-5.39-54.52-12.12-63.27s1.35-39.72,1.35-39.72L190.39,466.62z"/>
<path class="st10" d="M171.44,251.31c0.78,1.78,2.66,2.78,4.36,3.71c9.88,5.44,18.16,13.34,26.31,21.14
	c-2.03-6.89-1.6-14.28,1.23-20.88c0.97-2.25,2.25-4.68,1.55-7.03c-0.51-1.73-1.99-2.98-3.41-4.08c-3.33-2.57-6.8-4.94-10.41-7.1
	c-2.52-1.51-7.7-5.52-10.59-5.09c-0.15,3.91-0.23,7.4-1.94,11.05C178.11,243.9,171.73,251.99,171.44,251.31z"/>
<circle class="st10" cx="205.87" cy="232.37" r="27.6"/>
<path class="st11" d="M207.22,297.66c0,0,4.71-23.56-8.75-31.64s-28.94-17.5-28.94-17.5s-4.71-0.67-6.73,9.42
	c0,0-38.37,7.4-42.41,43.75s2.69,89.53,2.69,89.53s-6.06,46.45-13.46,71.35c0,0-6.06,5.39,20.87-2.69s74.05,22.89,74.05,22.89
	s4.71-4.71,4.71-8.08s5.39-22.89,5.39-22.89s4.71-82.8,6.73-92.22S213.27,299.01,207.22,297.66z"/>
<path class="st9" d="M199.37,235.21c1.66-0.92,3.52-1.41,5.41-1.44c1.9-0.03,3.75-0.58,5.35-1.6c2.61-2,2.8-5.87,4.71-8.55
	c2.76-3.88,8.27-4.34,13.02-4.15c2.91,0.12,6.04,0.29,8.49-1.28c2.51-1.61,3.65-4.66,4.5-7.52c1-3.39,1.65-7.53-0.83-10.04
	c-1.72-1.74-4.45-2.09-6.36-3.62c-1.99-1.59-2.8-4.17-3.88-6.48c-1.23-2.81-3.17-5.24-5.64-7.06c-3.61-2.51-8.23-3.07-12.63-3.03
	s-8.82,0.63-13.19,0.09c-3.58-0.44-7.15-1.63-10.71-1.11c-4.55,0.67-8.31,4.1-10.55,8.11s-3.2,8.59-4.13,13.09l-2.53,12.24
	c-0.79,3.8-1.58,7.69-0.97,11.52c1.26,7.94,8.28,14.25,8.76,22.27c0.94-4.5,4.07-8.23,8.34-9.92c0.53-0.26,1.13-0.33,1.7-0.21
	c0.7,0.22,1.1,0.92,1.54,1.5c1.15,1.53,4.78,3.86,6.83,2.77C198.43,239.83,197.06,236.78,199.37,235.21z"/>
<path class="st10" d="M129.8,360.94c0,0-4.71,29.62,14.81,26.93c0,0,10.1-1.35,11.44,0s51.16-7.4,57.89-14.81
	c0,0,8.08-2.69,12.12,1.35s44.43,8.08,32.31-4.04s-30.96-14.81-30.96-14.81l-25.58,1.35c0,0-13.46,4.04-21.54,0
	s-30.96-2.69-30.96-2.69L129.8,360.94z"/>
<path class="st11" d="M157.4,267.37c0,0-30.29,3.37-30.29,47.12v55.87c0,0,16.83-7.4,20.19-6.73s16.83-8.75,16.83-8.75
	s15.48-36.35,14.14-46.45S177.6,268.72,157.4,267.37z"/>
<ellipse class="st9" cx="205.87" cy="215.2" rx="25.92" ry="13.46"/>
<ellipse class="st9" cx="181.64" cy="217.56" rx="9.09" ry="22.55"/>
<g>
	<g>
		<path class="st12" d="M407.01,364.87c0,1.74-0.34,3.25-1.01,4.51s-1.59,2.3-2.75,3.13c-1.02,0.73-2.28,1.27-3.77,1.62
			c-1.49,0.35-3,0.52-4.53,0.52c-1.1,0-2.09-0.03-2.96-0.08c-0.87-0.06-1.45-0.1-1.73-0.13l-0.53-6.4c0.14,0.03,0.68,0.08,1.61,0.15
			s1.77,0.11,2.5,0.11c0.55,0,1.24-0.06,2.06-0.19s1.51-0.3,2.06-0.52c0.74-0.3,1.26-0.69,1.56-1.15s0.45-1.04,0.45-1.72
			c0-0.76-0.16-1.4-0.49-1.91s-0.89-1.05-1.69-1.61c-0.49-0.33-1.16-0.75-2-1.26c-0.84-0.51-1.56-1.01-2.15-1.52
			c-1.15-0.94-1.97-1.99-2.47-3.16c-0.5-1.17-0.75-2.47-0.75-3.9c0-1.22,0.18-2.32,0.55-3.29c0.37-0.97,0.86-1.81,1.47-2.51
			c0.93-1.14,2.19-2.02,3.78-2.64s3.47-0.93,5.64-0.93c1.03,0,1.92,0.02,2.66,0.06s1.21,0.08,1.4,0.11l0.6,6.4
			c-0.29-0.02-0.76-0.06-1.39-0.13s-1.42-0.11-2.37-0.11c-0.66,0-1.29,0.06-1.89,0.19c-0.6,0.13-1.18,0.32-1.73,0.57
			c-0.52,0.22-0.92,0.56-1.22,1c-0.3,0.44-0.45,0.98-0.45,1.62c0,0.59,0.16,1.14,0.49,1.65s0.9,1.07,1.72,1.65
			c0.54,0.36,1.17,0.77,1.89,1.21s1.43,0.94,2.12,1.47c1.11,0.89,1.95,1.93,2.5,3.12S407.01,363.33,407.01,364.87z"/>
		<path class="st12" d="M441.79,373.15l-5.61,1.45l-2.95-21.44l-0.09-0.04c-0.32,0.98-1.02,3.21-2.1,6.68
			c-1.08,3.47-2.17,7.16-3.27,11.06h-4.38c-1.09-3.9-2.2-7.63-3.32-11.19c-1.13-3.56-1.81-5.74-2.06-6.53l-0.09,0
			c-0.12,0.76-0.51,3.35-1.17,7.78s-1.3,8.98-1.91,13.66l-5.44-1.4c1.23-7.42,2.29-14.12,3.17-20.1c0.88-5.98,1.4-9.44,1.54-10.36
			l5.64-0.81c0.16,0.62,0.81,2.88,1.95,6.78s2.46,8.35,3.97,13.36h0.14c1.21-3.98,2.49-8.24,3.85-12.79s2.09-7,2.2-7.35l5.75,0.67
			c0.06,0.54,0.48,3.77,1.27,9.69S440.64,365.14,441.79,373.15z"/>
		<path class="st12" d="M463.99,348.87c-0.49,0-1.43-0.01-2.81-0.02c-1.38-0.02-3.05-0.02-5.01-0.02c-0.02,2.49-0.04,4.49-0.05,5.99
			c-0.01,1.51-0.02,3.46-0.02,5.85c0,2.71,0.01,5.33,0.03,7.86c0.02,2.53,0.03,4.41,0.04,5.65h-5.82c0.01-1.19,0.02-3,0.04-5.43
			c0.01-2.43,0.02-5.13,0.02-8.1c0-2.19,0-4.05,0-5.59c0-1.54-0.01-3.61-0.04-6.23c-1.92,0-3.64,0.01-5.15,0.02
			c-1.51,0.02-2.41,0.02-2.69,0.02v-6.49c0.91,0,2.41,0,4.48,0.01c2.07,0.01,4.14,0.01,6.21,0.01c2.38,0,4.66,0,6.83-0.01
			c2.17-0.01,3.49-0.01,3.95-0.01V348.87z"/>
		<path class="st12" d="M497.23,358.42c0,2.79-0.51,5.24-1.52,7.34c-1.01,2.11-2.33,3.8-3.94,5.08c-1.41,1.12-2.99,1.98-4.74,2.57
			c-1.76,0.59-3.8,0.88-6.13,0.88c-1.09,0-2.29-0.02-3.59-0.06c-1.31-0.04-2.03-0.06-2.19-0.06c0-0.16,0.01-1.84,0.04-5.04
			s0.04-6.94,0.04-11.21c0-1.77-0.01-3.99-0.02-6.65c-0.01-2.66-0.03-5.64-0.05-8.93c0.19,0,0.97-0.01,2.34-0.02
			s2.33-0.02,2.88-0.02c2.56,0,4.81,0.29,6.74,0.88c1.93,0.59,3.63,1.51,5.1,2.78c1.71,1.47,2.98,3.25,3.81,5.32
			C496.82,353.34,497.23,355.72,497.23,358.42z M491.26,358.15c0-1.58-0.26-3.03-0.77-4.35s-1.32-2.42-2.43-3.33
			c-0.98-0.81-2.06-1.37-3.23-1.67s-2.27-0.46-3.31-0.46c-0.12,0-0.24,0-0.38,0s-0.22,0-0.25,0c-0.01,1.62-0.02,3.15-0.02,4.61
			c0,1.46,0,2.65,0,3.59c0,0.84,0,2.18,0,4.01s0.01,4.35,0.02,7.55c0.11,0,0.2,0,0.28,0s0.18,0,0.3,0c1.05,0,2.17-0.18,3.35-0.53
			c1.18-0.36,2.15-0.84,2.91-1.44c1.18-0.93,2.07-2.06,2.65-3.38S491.26,359.9,491.26,358.15z"/>
		<path class="st12" d="M519.52,374.17c-0.42,0-1.59-0.01-3.5-0.02c-1.91-0.02-3.81-0.02-5.7-0.02c-1.63,0-3.22,0.01-4.76,0.02
			c-1.55,0.02-2.67,0.02-3.38,0.02c0.01-0.84,0.03-2.67,0.04-5.48s0.03-6.38,0.03-10.7c0-1.82-0.01-4.15-0.02-6.97
			s-0.03-5.7-0.05-8.64c0.8,0,1.93,0,3.4,0.01c1.47,0.01,2.95,0.01,4.44,0.01c2.03,0,4.01,0,5.96-0.01c1.95-0.01,3.05-0.01,3.3-0.01
			v5.87c-0.2,0-0.97-0.01-2.3-0.02s-2.68-0.02-4.03-0.02c-0.79,0-1.7,0-2.74,0.01c-1.04,0.01-1.86,0.01-2.46,0.01
			c0,1.19-0.01,2.45-0.02,3.77c-0.01,1.32-0.02,2.51-0.02,3.58c0.61,0,1.39,0,2.33,0.01c0.94,0.01,1.72,0.01,2.33,0.01
			c1.51,0,2.93-0.01,4.25-0.02s2.16-0.02,2.52-0.02v4.73c-0.23,0-1.14-0.01-2.72-0.02c-1.58-0.02-2.91-0.02-3.97-0.02
			c-0.6,0-1.38,0-2.35,0.01c-0.97,0.01-1.76,0.01-2.38,0.01c0,1.85,0,3.44,0.01,4.77c0.01,1.32,0.01,2.41,0.03,3.25
			c0.7,0.02,1.64,0.03,2.81,0.04s2.23,0.01,3.18,0.01c1.34,0,2.55-0.01,3.64-0.02c1.09-0.02,1.8-0.02,2.13-0.02V374.17z"/>
		<path class="st12" d="M546.56,344.12c-0.21,0.68-1.44,4.51-3.69,11.49c-2.25,6.98-4.27,13.25-6.06,18.82h-5.77
			c-1.88-5.87-3.68-11.49-5.42-16.85c-1.74-5.37-3.14-9.82-4.19-13.36l5.76-2.53c0.15,0.67,0.99,3.62,2.53,8.86
			s2.98,10.08,4.35,14.52h0.12c1.44-4.77,2.92-9.73,4.46-14.88c1.53-5.15,2.36-7.99,2.49-8.49L546.56,344.12z"/>
		<path class="st12" d="M564.43,381.09h-18v-3.19h18V381.09z"/>
		<path class="st12" d="M587.5,364.78c0,1.78-0.41,3.35-1.21,4.73c-0.81,1.38-1.96,2.44-3.47,3.19c-1.22,0.6-2.63,1.01-4.23,1.24
			c-1.6,0.22-3.36,0.33-5.27,0.33c-1.03,0-2.11-0.02-3.24-0.06s-1.96-0.08-2.5-0.11c0.02-2.6,0.04-5.26,0.05-7.96
			s0.02-5.61,0.02-8.72c0-3.39-0.01-6.71-0.04-9.96c-0.02-3.24-0.04-4.95-0.04-5.13c0.2,0,0.85-0.03,1.95-0.09s2.29-0.1,3.55-0.1
			c1.91,0,3.5,0.07,4.76,0.21c1.27,0.14,2.41,0.43,3.45,0.86c1.3,0.54,2.33,1.38,3.09,2.51s1.14,2.53,1.14,4.18
			c0,1.51-0.33,2.88-0.98,4.12c-0.65,1.24-1.51,2.15-2.59,2.74v0.17c0.68,0.13,1.32,0.35,1.91,0.68c0.59,0.33,1.13,0.77,1.6,1.32
			c0.69,0.71,1.2,1.55,1.53,2.51C587.33,362.4,587.5,363.51,587.5,364.78z M581.52,363.9c0-0.73-0.11-1.36-0.32-1.9
			c-0.21-0.54-0.5-1.03-0.86-1.47c-0.32-0.36-0.74-0.67-1.27-0.9s-1.1-0.36-1.71-0.36c-0.47,0-0.86,0.01-1.16,0.02
			s-0.49,0.02-0.56,0.02l-0.49-3.02c0.62-0.03,1.2-0.15,1.74-0.37s0.99-0.5,1.35-0.85c0.39-0.4,0.71-0.89,0.96-1.47
			c0.25-0.58,0.38-1.29,0.38-2.13c0-0.72-0.14-1.38-0.41-1.98s-0.65-1.08-1.13-1.43c-0.41-0.27-0.89-0.47-1.45-0.6
			s-1.15-0.19-1.77-0.19c-0.32,0-0.64,0.01-0.98,0.02c-0.33,0.02-0.56,0.02-0.68,0.02c-0.02,1.6-0.04,3.38-0.04,5.33
			s-0.01,3.68-0.01,5.19c0,1.56,0.01,3.7,0.02,6.44c0.01,2.74,0.02,4.22,0.02,4.44c0.16,0,0.41,0.01,0.75,0.04s0.71,0.04,1.13,0.04
			c0.91,0,1.8-0.07,2.65-0.2c0.85-0.13,1.56-0.42,2.12-0.84c0.54-0.38,0.96-0.9,1.27-1.57C581.37,365.51,581.52,364.75,581.52,363.9
			z"/>
		<path class="st12" d="M608.87,374.17c-0.45,0-1.6-0.01-3.45-0.02c-1.86-0.02-3.65-0.02-5.39-0.02c-1.38,0-2.73,0.01-4.05,0.02
			c-1.32,0.02-2.6,0.02-3.84,0.02c0.01-2.67,0.03-5.54,0.04-8.61c0.02-3.08,0.03-5.77,0.03-8.09c0-4.17-0.01-7.51-0.03-10.01
			s-0.03-4.21-0.04-5.13h5.84c-0.01,1.92-0.02,4.06-0.04,6.42c-0.01,2.36-0.02,4.57-0.02,6.61c0,3.04,0.01,5.77,0.02,8.17
			c0.01,2.4,0.02,3.79,0.02,4.15c0.53,0,1.13,0,1.81,0.01s1.29,0.01,1.83,0.01c1.54,0,3.06-0.01,4.54-0.02
			c1.49-0.02,2.4-0.02,2.74-0.02V374.17z"/>
		<path class="st12" d="M635.85,358.26c0,2.54-0.34,4.87-1.01,7.01s-1.63,3.98-2.86,5.52c-1.16,1.46-2.46,2.54-3.9,3.25
			s-2.98,1.06-4.62,1.06c-1.62,0-3.14-0.34-4.57-1.01c-1.43-0.67-2.7-1.68-3.81-3.03c-1.25-1.52-2.24-3.38-2.95-5.56
			s-1.07-4.6-1.07-7.25c0-2.46,0.3-4.7,0.89-6.72c0.59-2.02,1.49-3.84,2.7-5.46c1.1-1.49,2.4-2.63,3.9-3.42
			c1.5-0.79,3.13-1.19,4.89-1.19c1.72,0,3.32,0.37,4.79,1.11s2.76,1.82,3.88,3.25c1.25,1.6,2.19,3.47,2.82,5.6
			C635.54,353.53,635.85,355.82,635.85,358.26z M629.88,358.51c0-1.6-0.2-3.19-0.6-4.76c-0.4-1.58-1.01-2.88-1.83-3.91
			c-0.52-0.67-1.11-1.19-1.78-1.57c-0.67-0.38-1.41-0.57-2.23-0.57c-0.81,0-1.55,0.19-2.23,0.58c-0.68,0.39-1.31,0.96-1.88,1.72
			c-0.73,0.98-1.29,2.21-1.7,3.69c-0.4,1.48-0.61,3-0.61,4.57c0,1.73,0.2,3.31,0.61,4.75s0.99,2.65,1.77,3.63
			c0.52,0.67,1.12,1.2,1.81,1.59s1.44,0.59,2.25,0.59c0.79,0,1.52-0.19,2.21-0.57c0.69-0.38,1.3-0.93,1.85-1.64
			c0.71-0.92,1.29-2.1,1.71-3.54S629.88,360.13,629.88,358.51z"/>
		<path class="st12" d="M658.27,367.99c-0.12,0.84-0.23,1.82-0.35,2.95c-0.12,1.13-0.23,2.35-0.33,3.69c-0.11,0-0.23,0-0.37,0
			s-0.29,0-0.46,0c-2.92,0-5.52-0.44-7.8-1.31s-4.22-2.2-5.81-3.97c-1.24-1.36-2.2-2.96-2.88-4.79s-1.02-3.94-1.02-6.32
			c0-2.22,0.34-4.22,1.01-6.01s1.62-3.35,2.84-4.7c1.57-1.79,3.53-3.15,5.87-4.08s4.84-1.39,7.49-1.39c0.15,0,0.3,0,0.43,0
			s0.27,0,0.41,0c0.06,0.68,0.14,1.63,0.24,2.84c0.1,1.21,0.23,2.48,0.4,3.82c-0.13,0-0.26,0-0.4,0s-0.27,0-0.41,0
			c-1,0-2.2,0.15-3.6,0.44s-2.63,0.74-3.67,1.35c-1.42,0.83-2.53,1.9-3.35,3.23c-0.81,1.33-1.22,2.84-1.22,4.56
			c0,1.73,0.39,3.25,1.16,4.57c0.77,1.32,1.89,2.4,3.34,3.24c1.08,0.68,2.33,1.17,3.77,1.46s2.66,0.44,3.67,0.44
			c0.14,0,0.31,0,0.5,0S658.09,367.99,658.27,367.99z"/>
		<path class="st12" d="M668.02,374.17h-5.82c0.01-0.54,0.03-2.34,0.04-5.41s0.03-7.12,0.03-12.16c0-1.87-0.01-4.07-0.03-6.61
			c-0.02-2.54-0.03-5.09-0.04-7.66h5.82c-0.01,2.31-0.02,4.97-0.04,7.97s-0.02,5.7-0.02,8.11c0,4.41,0.01,8,0.02,10.78
			C668,371.97,668.01,373.63,668.02,374.17z M683.56,371.84l-5.19,2.93c-2.43-4.07-4.69-7.72-6.79-10.93
			c-2.1-3.21-3.27-4.95-3.49-5.22v-0.07c0.62-1.06,1.88-3.23,3.78-6.49c1.9-3.27,3.82-6.69,5.77-10.27l5.1,2.88
			c-1.65,2.65-3.33,5.43-5.03,8.36c-1.7,2.92-2.71,4.61-3.03,5.05l0,0.04c0.15,0.21,1.07,1.63,2.76,4.28
			C679.13,365.04,681.17,368.19,683.56,371.84z"/>
		<path class="st12" d="M702.23,364.87c0,1.74-0.34,3.25-1.01,4.51s-1.59,2.3-2.75,3.13c-1.02,0.73-2.28,1.27-3.77,1.62
			c-1.49,0.35-3,0.52-4.53,0.52c-1.1,0-2.09-0.03-2.96-0.08c-0.87-0.06-1.45-0.1-1.73-0.13l-0.53-6.4c0.14,0.03,0.68,0.08,1.61,0.15
			s1.77,0.11,2.5,0.11c0.55,0,1.24-0.06,2.06-0.19s1.51-0.3,2.06-0.52c0.74-0.3,1.26-0.69,1.56-1.15s0.45-1.04,0.45-1.72
			c0-0.76-0.16-1.4-0.49-1.91s-0.89-1.05-1.69-1.61c-0.49-0.33-1.16-0.75-2-1.26c-0.84-0.51-1.56-1.01-2.15-1.52
			c-1.15-0.94-1.97-1.99-2.47-3.16c-0.5-1.17-0.75-2.47-0.75-3.9c0-1.22,0.18-2.32,0.55-3.29c0.37-0.97,0.86-1.81,1.47-2.51
			c0.93-1.14,2.19-2.02,3.78-2.64s3.47-0.93,5.64-0.93c1.03,0,1.92,0.02,2.66,0.06s1.21,0.08,1.4,0.11l0.6,6.4
			c-0.29-0.02-0.76-0.06-1.39-0.13s-1.42-0.11-2.37-0.11c-0.66,0-1.29,0.06-1.89,0.19c-0.6,0.13-1.18,0.32-1.73,0.57
			c-0.52,0.22-0.92,0.56-1.22,1c-0.3,0.44-0.45,0.98-0.45,1.62c0,0.59,0.16,1.14,0.49,1.65s0.9,1.07,1.72,1.65
			c0.54,0.36,1.17,0.77,1.89,1.21s1.43,0.94,2.12,1.47c1.11,0.89,1.95,1.93,2.5,3.12S702.23,363.33,702.23,364.87z"/>
	</g>
</g>
</svg>
